<?xml version="1.0" standalone="no"?>
<!DOCTYPE svg PUBLIC "-//W3C//DTD SVG 20010904//EN"
 "http://www.w3.org/TR/2001/REC-SVG-20010904/DTD/svg10.dtd">
<svg version="1.0" xmlns="http://www.w3.org/2000/svg"
 width="225.000000pt" height="225.000000pt" viewBox="0 0 225.000000 225.000000"
 preserveAspectRatio="xMidYMid meet">

<g transform="translate(0.000000,225.000000) scale(0.100000,-0.100000)"
fill="#000000" stroke="none">
<path d="M1000 2239 c-249 -25 -515 -158 -692 -347 -316 -337 -393 -832 -193
-1249 57 -119 110 -198 198 -290 96 -101 182 -164 312 -228 135 -67 253 -102
393 -115 324 -30 639 77 874 298 130 122 243 299 296 462 41 125 54 210 54
355 0 145 -13 230 -54 355 -122 375 -450 664 -843 744 -96 19 -243 26 -345 15z
m-44 -641 l15 -33 154 0 154 0 16 34 c15 31 18 33 53 26 87 -16 225 -68 248
-92 29 -32 116 -207 143 -290 32 -95 51 -225 51 -344 l0 -108 -42 -29 c-89
-59 -262 -142 -297 -142 -5 0 -25 26 -45 58 l-35 57 56 28 c30 16 52 32 47 37
-5 5 -47 -5 -95 -21 -167 -56 -339 -56 -505 -1 -103 35 -132 26 -51 -15 l56
-28 -35 -57 c-20 -32 -40 -58 -45 -58 -4 0 -43 14 -85 31 -80 31 -138 62 -213
112 l-44 30 6 151 c4 120 11 170 31 244 28 102 75 211 131 301 39 65 52 73
199 116 107 31 113 31 132 -7z"/>
<path d="M842 1184 c-31 -21 -52 -66 -52 -109 0 -74 47 -125 116 -125 52 0 90
28 105 80 26 88 -23 170 -103 170 -24 0 -54 -7 -66 -16z"/>
<path d="M1282 1184 c-49 -34 -65 -104 -38 -168 18 -44 52 -66 101 -66 68 0
115 51 115 125 0 74 -47 125 -115 125 -22 0 -51 -7 -63 -16z"/>
</g>
</svg>
