<?xml version="1.0" standalone="no"?>
<!DOCTYPE svg PUBLIC "-//W3C//DTD SVG 20010904//EN"
 "http://www.w3.org/TR/2001/REC-SVG-20010904/DTD/svg10.dtd">
<svg version="1.0" xmlns="http://www.w3.org/2000/svg"
 width="225.000000pt" height="225.000000pt" viewBox="0 0 225.000000 225.000000"
 preserveAspectRatio="xMidYMid meet">

<g transform="translate(0.000000,225.000000) scale(0.100000,-0.100000)"
fill="#000000" stroke="none">
<path d="M971 2049 c-82 -14 -229 -66 -299 -105 -143 -80 -287 -224 -366 -366
-133 -241 -152 -532 -50 -799 82 -219 285 -425 508 -518 86 -36 89 -36 110
-15 12 12 16 37 16 103 l0 87 -65 -4 c-127 -8 -202 34 -254 141 -30 63 -67
110 -110 138 -31 20 -22 49 14 49 45 0 102 -37 147 -97 58 -77 113 -107 187
-98 71 7 87 18 95 59 4 19 15 45 26 58 l19 25 -77 16 c-234 51 -342 190 -342
439 0 96 19 161 65 228 24 34 25 41 15 85 -12 52 -5 121 16 173 13 31 16 33
51 27 21 -3 79 -26 128 -50 l90 -44 80 14 c104 19 192 19 298 0 l86 -15 73 40
c84 45 163 66 183 50 23 -19 38 -132 26 -190 -10 -47 -9 -54 11 -82 48 -68 68
-137 68 -240 0 -250 -114 -390 -358 -438 -57 -12 -61 -14 -48 -29 36 -39 46
-100 46 -267 0 -219 3 -222 157 -149 256 120 440 340 515 616 33 122 33 348 0
468 -46 169 -125 305 -248 428 -174 174 -378 261 -629 268 -71 2 -154 0 -184
-6z"/>
</g>
</svg>
